<?xml version="1.0" standalone="no"?>
<!DOCTYPE svg PUBLIC "-//W3C//DTD SVG 20010904//EN"
 "http://www.w3.org/TR/2001/REC-SVG-20010904/DTD/svg10.dtd">
<svg version="1.0" xmlns="http://www.w3.org/2000/svg"
 width="512.000000pt" height="512.000000pt" viewBox="0 0 512.000000 512.000000"
 preserveAspectRatio="xMidYMid meet">
<metadata>
Created by potrace 1.11, written by Peter Selinger 2001-2013
</metadata>
<g transform="translate(0.000000,512.000000) scale(0.100000,-0.100000)"
fill="#000000" stroke="none">
<path d="M2255 4282 c-280 -14 -599 -112 -960 -294 -531 -267 -886 -601 -1004
-946 -34 -100 -38 -187 -11 -274 67 -220 218 -376 690 -707 153 -107 195 -140
189 -145 -2 -1 -49 -27 -104 -56 -344 -183 -550 -365 -617 -545 -32 -85 -32
-239 -1 -307 57 -125 119 -162 286 -172 288 -16 601 204 702 492 13 38 27 85
30 103 3 19 8 47 11 63 12 57 7 199 -11 286 0 3 -9 29 -19 59 -16 45 -16 55
-5 62 75 47 239 137 239 131 0 -4 -7 -29 -15 -57 -9 -27 -18 -63 -20 -80 -3
-16 -8 -55 -13 -85 -25 -169 19 -373 105 -488 63 -84 179 -86 255 -5 29 31
109 183 147 278 13 33 27 63 31 68 3 4 4 -30 2 -76 -8 -154 30 -249 104 -263
102 -19 166 64 377 485 57 113 130 269 162 346 32 77 60 144 63 149 3 5 17
-37 32 -95 15 -57 46 -145 69 -196 l43 -92 -23 -33 c-34 -49 -123 -161 -159
-199 -60 -65 -141 -176 -149 -205 -23 -79 44 -113 183 -93 85 12 213 66 275
116 60 49 67 57 101 128 27 54 29 67 26 145 -2 53 -11 108 -25 148 l-21 63 38
57 c55 81 121 193 177 297 26 50 51 94 55 98 5 5 11 -11 15 -35 10 -61 59
-208 90 -268 l26 -51 -51 -46 c-92 -82 -174 -204 -199 -293 -30 -109 -16 -176
42 -204 42 -19 87 -14 175 23 88 35 140 70 205 134 69 67 99 139 96 224 -1 38
-8 85 -16 107 -7 21 -13 44 -13 51 0 7 35 23 78 36 62 19 104 24 212 25 176 4
276 -15 390 -72 114 -56 183 -132 213 -235 31 -106 -7 -193 -123 -281 -28 -21
-32 -29 -23 -39 23 -23 92 10 159 76 49 48 65 72 78 115 21 71 20 134 -4 211
-51 166 -187 288 -390 350 -63 20 -97 24 -215 24 -183 0 -253 -13 -417 -80
-14 -6 -24 7 -53 66 -54 111 -64 154 -61 266 2 73 9 118 28 175 28 84 25 99
-22 117 -33 11 -149 6 -196 -9 -39 -13 -45 -25 -75 -138 -19 -77 -87 -218
-196 -411 -97 -172 -88 -163 -116 -100 -30 65 -35 82 -42 134 -7 49 -7 163 -1
174 3 4 7 18 10 32 2 13 13 52 24 86 19 62 19 62 0 80 -25 22 -148 28 -210 9
-47 -13 -57 -27 -84 -121 -16 -56 -46 -133 -90 -230 -10 -22 -18 -42 -19 -45
-3 -8 -35 -80 -60 -135 -13 -27 -54 -117 -90 -200 -86 -191 -171 -361 -186
-371 -16 -10 -5 139 15 216 8 30 17 66 20 80 4 21 17 71 63 245 16 59 14 91
-5 108 -29 26 -86 33 -117 13 -16 -11 -23 -12 -19 -3 10 26 11 111 1 156 -27
130 -132 162 -283 86 -76 -39 -178 -123 -235 -193 -27 -34 -77 -66 -262 -167
l-229 -124 -47 47 c-47 47 -78 73 -311 258 -272 216 -363 349 -361 526 2 167
76 314 240 479 169 168 448 350 756 491 85 39 275 111 325 123 322 79 510 89
715 41 105 -25 200 -89 238 -161 27 -51 32 -164 10 -238 -64 -218 -269 -435
-543 -572 -74 -37 -260 -109 -260 -100 0 2 -12 0 -27 -6 -67 -25 -202 -43
-323 -42 -141 0 -260 41 -345 115 -68 60 -94 44 -60 -38 31 -75 185 -188 286
-210 115 -24 294 -30 424 -13 101 14 302 65 392 100 399 156 691 507 720 865
11 145 -29 271 -120 371 -152 166 -441 253 -782 235z m-46 -1931 c12 -8 13
-20 2 -82 -15 -82 -109 -364 -151 -454 -5 -11 -19 -44 -30 -72 -22 -60 -73
-160 -93 -185 -7 -9 -22 -18 -32 -20 -52 -9 -72 215 -34 375 57 239 252 492
338 438z m1488 -446 c-6 -64 -26 -112 -65 -152 -35 -36 -108 -77 -122 -68 -26
16 53 185 122 260 50 55 52 56 61 33 5 -12 6 -45 4 -73z m-2415 -120 c28 -106
8 -265 -46 -374 -105 -207 -349 -362 -484 -305 -111 46 -51 283 109 428 106
96 380 287 403 282 6 -1 13 -15 18 -31z m1787 -52 c-18 -58 -73 -126 -133
-168 -82 -57 -97 -42 -30 30 31 33 70 77 87 99 18 21 43 52 57 69 28 35 37 23
19 -30z"/>
</g>
</svg>
